<svg fill="currentColor" height="24" viewBox="0 0 32 32" width="24" xmlns="http://www.w3.org/2000/svg"><path d="M17.0411 0.0336351C14.813 -0.110454 12.579 0.20947 10.483 0.972824C8.38706 1.73618 6.47544 2.92606 4.87113 4.46593C3.26683 6.0058 2.00538 7.86157 1.16792 9.91385C0.330461 11.9661 -0.0644598 14.1695 0.00855731 16.3822C0.279677 24.704 7.12701 31.4705 15.5191 31.7118C18.2674 31.799 20.9916 31.1796 23.427 29.9139C23.4984 29.8765 23.5787 29.8591 23.6593 29.8635C23.74 29.8679 23.8179 29.894 23.8847 29.9389C24.3494 30.2451 24.8338 30.5207 25.3349 30.7641C27.0728 31.5963 28.9812 32.019 30.9111 31.9993C30.97 31.9997 31.0284 31.9885 31.0829 31.9664C31.1374 31.9443 31.187 31.9118 31.2288 31.8707C31.2707 31.8296 31.3039 31.7807 31.3266 31.7268C31.3493 31.6729 31.3611 31.6151 31.3613 31.5568V26.1731C31.3618 26.0689 31.325 25.9679 31.2573 25.8881C31.1896 25.8084 31.0955 25.7552 30.9918 25.738C30.4768 25.6593 29.9739 25.5164 29.495 25.3129C29.4358 25.287 29.383 25.2486 29.3404 25.2003C29.2977 25.1521 29.2662 25.0952 29.2481 25.0336C29.2299 24.972 29.2256 24.9073 29.2354 24.8439C29.2451 24.7804 29.2687 24.7199 29.3046 24.6665C31.23 21.8167 32.1675 18.423 31.9754 14.9981C31.5441 7.02016 25.0839 0.539995 17.0411 0.0336351ZM6.31113 15.8621C6.31113 13.9625 6.87928 12.1055 7.94372 10.5261C9.00815 8.94659 10.5211 7.71555 12.2912 6.9886C14.0613 6.26165 16.009 6.07144 17.8881 6.44204C19.7673 6.81263 21.4934 7.72738 22.8481 9.07061C24.2029 10.4138 25.1255 12.1252 25.4993 13.9883C25.8731 15.8514 25.6812 17.7826 24.948 19.5376C24.2148 21.2926 22.9732 22.7926 21.3802 23.848C19.7871 24.9034 17.9142 25.4667 15.9983 25.4667C13.4291 25.4667 10.9651 24.4548 9.14843 22.6536C7.33173 20.8523 6.31113 18.4094 6.31113 15.8621Z" fill="currentColor"></path></svg>